PathFileType	4	(X/Y/Z)	9_coords_data.trc
DataRate	CameraRate	NumFrames	NumMarkers	Units	OrigDataRate	OrigDataStartFrame	OrigNumFrames
30.0	30.0	9	21	m	30.0	40	59
Frame#	Time	THUMB_TIP	THUMB_IP	THUMB_MCP	THUMB_CMC	INDEX_TIP	INDEX_DIP	INDEX_PIP	INDEX_MCP	MIDDLE_TIP	MIDDLE_DIP	MIDDLE_PIP	MIDDLE_MCP	RING_TIP	RING_DIP	RING_PIP	RING_MCP	PINKY_TIP	PINKY_DIP	PINKY_PIP	PINKY_MCP	WRIST
X1	Y1	Z1	X2	Y2	Z2	X3	Y3	Z3	X4	Y4	Z4	X5	Y5	Z5	X6	Y6	Z6	X7	Y7	Z7	X8	Y8	Z8	X9	Y9	Z9	X10	Y10	Z10	X11	Y11	Z11	X12	Y12	Z12	X13	Y13	Z13	X14	Y14	Z14	X15	Y15	Z15	X16	Y16	Z16	X17	Y17	Z17	X18	Y18	Z18	X19	Y19	Z19	X20	Y20	Z20	X21	Y21	Z21
39	1.3	0.06179869842529297	-0.029789800643920897	0.9735770263671875	0.04291429901123047	-0.02690719985961914	0.9933159790039062	0.020990699768066407	-0.022826799392700194	1.0145599975585937	0.0018256800174713131	-0.0026823101043701174	1.0307900390625	0.03992369842529297	-0.001981529951095581	0.90481201171875	0.024068300247192382	-0.008226340293884277	0.9185499877929687	0.008206000328063965	-0.013772199630737305	0.9341519775390625	-0.0025518798828125	-0.015093999862670899	0.9729149780273437	0.03779610061645508	0.03286520004272461	0.8960709838867188	0.020644800186157226	0.02542639923095703	0.9113690185546875	-0.0005195350050926201	0.016928300857543946	0.9308369750976563	-0.012392499923706054	0.006769999980926513	0.9708499755859376	0.029652399063110353	0.05556629943847656	0.90752197265625	0.013373000144958496	0.04984939956665039	0.92389697265625	-0.006275720119476318	0.04145729827880859	0.9433930053710937	-0.01658009910583496	0.028238899230957033	0.9784810180664063	0.008972220420837403	0.08723079681396484	0.9462340087890625	-0.00162116003036499	0.07788610076904297	0.9606279907226563	-0.010914400100708007	0.06762799835205079	0.9737830200195312	-0.01602169990539551	0.04828170013427734	0.99377001953125	-0.03183860015869141	0.005780330181121826	1.054780029296875
40	1.3333333333333333	0.06098249816894531	-0.028299699783325194	0.9737550048828125	0.042320899963378907	-0.026047000885009764	0.9937449951171875	0.020555999755859374	-0.022085699081420898	1.0151199951171874	0.001269989967346191	-0.001914620041847229	1.0314100341796875	0.039627700805664065	0.000303705006837844	0.9056079711914062	0.02395599937438965	-0.006069910049438476	0.9193179931640625	0.008191880226135253	-0.011741200447082519	0.9349400024414063	-0.00294618010520935	-0.0137475004196167	0.9735239868164063	0.03660110092163086	0.035353199005126956	0.8967319946289063	0.019843999862670898	0.027510400772094726	0.912093017578125	-0.000991908013820648	0.01882710075378418	0.9317869873046875	-0.012838600158691406	0.008232500076293945	0.9717509765625	0.02866830062866211	0.05801789855957031	0.908469970703125	0.012675100326538086	0.0520098991394043	0.9250239868164063	-0.006684309959411621	0.043320598602294924	0.9446199951171875	-0.017060400009155274	0.029490800857543947	0.979385009765625	0.008217769622802734	0.08919080352783203	0.9479970092773438	-0.002362819910049438	0.07964399719238281	0.9622340087890625	-0.011589300155639649	0.06921019744873047	0.9752260131835937	-0.016714899063110352	0.04966019821166992	0.9950189819335937	-0.03203319931030273	0.006482970237731933	1.0553800048828126
41	1.3666666666666667	0.06147560119628906	-0.02636840057373047	0.9750070190429687	0.04265700149536133	-0.02511090087890625	0.9948519897460938	0.020690500259399416	-0.021539699554443358	1.015969970703125	0.001402760028839111	-0.001730960011482238	1.032050048828125	0.03943659973144531	0.0009961739778518671	0.906114990234375	0.023840099334716796	-0.005440710067749023	0.9199569702148438	0.008120739936828613	-0.011178799629211426	0.93568798828125	-0.00275622010231018	-0.013274399757385254	0.974281982421875	0.03606769943237305	0.03589239883422852	0.897344970703125	0.019467199325561523	0.028007200241088867	0.9127349853515625	-0.001194929957389831	0.0192052001953125	0.9325590209960938	-0.012792499542236328	0.008683340072631836	0.9724089965820313	0.028082199096679687	0.05882379913330078	0.9092739868164063	0.012250100135803223	0.05268989944458008	0.9257830200195313	-0.006969580173492432	0.043864700317382814	0.9455059814453125	-0.01718829917907715	0.02990730094909668	0.9801439819335938	0.008237719535827637	0.08989869689941406	0.9493079833984375	-0.0023779900074005116	0.08026909637451173	0.963489990234375	-0.011665399551391602	0.06975679779052735	0.9763309936523438	-0.016806100845336912	0.04996120071411133	0.9960490112304687	-0.032146499633789065	0.0067870597839355465	1.0559599609375
42	1.4	0.06216849899291992	-0.024800199508666992	0.9758259887695313	0.04337770080566406	-0.02463870048522949	0.9957960205078125	0.021204599380493162	-0.02138599967956543	1.016739990234375	0.001715149998664856	-0.0016832100152969361	1.0328699951171876	0.03994390106201172	0.000984610974788665	0.9068150024414062	0.02444219970703125	-0.0055820999145507815	0.9207349853515625	0.008698390007019044	-0.011343899726867676	0.9363280029296875	-0.002368340015411377	-0.013440099716186524	0.974885009765625	0.03576729965209961	0.03554520034790039	0.8975089721679688	0.019255300521850587	0.027647899627685546	0.91306298828125	-0.0012484200000762939	0.018883699417114257	0.9330260009765625	-0.012602299690246581	0.008435449600219726	0.9731199951171875	0.027091400146484375	0.05835350036621094	0.9091160278320313	0.011458200454711914	0.05218610000610351	0.92589697265625	-0.007412859916687012	0.043414600372314455	0.9458770141601562	-0.016890499114990236	0.029718099594116212	0.9807080078125	0.009454130172729492	0.08980100250244141	0.950530029296875	-0.001493129968643188	0.08014839935302734	0.9644920043945312	-0.01101200008392334	0.06960459899902344	0.9772160034179688	-0.016597000122070313	0.049740398406982425	0.9965280151367187	-0.032042701721191405	0.006614779949188233	1.05675
43	1.4333333333333333	0.06301160049438477	-0.02462369918823242	0.9766199951171874	0.04415879821777344	-0.024796600341796874	0.9965399780273437	0.021923999786376953	-0.02167020034790039	1.0173400268554686	0.00210492992401123	-0.002037329912185669	1.0333699951171875	0.040962200164794925	0.000341363996267318	0.9076190185546875	0.0252952995300293	-0.006172540187835693	0.921260009765625	0.009514849662780761	-0.01197439956665039	0.9367960205078125	-0.001725669980049133	-0.013950400352478028	0.9753040161132812	0.03565779876708984	0.034457199096679686	0.897302001953125	0.019206600189208986	0.026676000595092772	0.9130349731445313	-0.0012036600112915038	0.017982500076293945	0.933166015625	-0.012048299789428712	0.007871809959411622	0.973530029296875	0.02595490074157715	0.057124401092529295	0.9083099975585938	0.010631199836730956	0.05106999969482422	0.9254340209960937	-0.007818260192871095	0.04240679931640625	0.945760009765625	-0.01632859992980957	0.029138900756835937	0.9811309814453125	0.010462499618530274	0.08906539916992187	0.9509340209960937	-0.0006397479772567741	0.0795072021484375	0.9648759765625	-0.010307000160217286	0.06904010009765625	0.9775330200195312	-0.01603700065612793	0.04919670104980469	0.9967880249023438	-0.03151700019836426	0.006100319862365723	1.05706005859375
44	1.4666666666666666	0.06428679656982422	-0.02463450050354004	0.977968017578125	0.045299598693847656	-0.02477440071105957	0.9974429931640625	0.022695499420166014	-0.021943599700927734	1.0179400024414063	0.002424069881439209	-0.0024124801158905028	1.0339100341796874	0.041893398284912106	-0.0007687749862670891	0.907989990234375	0.02611129951477051	-0.007202879905700683	0.921510986328125	0.010251500129699708	-0.01294099998474121	0.937031982421875	-0.001199579954147338	-0.014788000106811524	0.9754619750976562	0.035844001770019535	0.03306039810180664	0.89718798828125	0.019418500900268556	0.025395099639892577	0.9130050048828126	-0.000872193992137908	0.016862600326538087	0.9332860107421875	-0.011507699966430664	0.007009280204772949	0.9737000122070313	0.023907600402832033	0.05558940124511719	0.9069359741210937	0.009061050415039063	0.04963629913330078	0.9245540161132813	-0.008576439857482911	0.04106539916992188	0.9454140014648438	-0.015916500091552734	0.02827149963378906	0.9812589721679688	0.011508099555969238	0.0880635986328125	0.9511079711914062	0.000172078996896743	0.07855860137939454	0.9650889892578125	-0.00963228988647461	0.06817919921875	0.9775809936523437	-0.015331600189208984	0.048387699127197266	0.9965260009765625	-0.03134980010986328	0.0056385498046875	1.0571500244140626
45	1.5	0.06523159790039063	-0.024301300048828123	0.9785390014648437	0.046111900329589846	-0.0247814998626709	0.9980059814453125	0.023377000808715822	-0.02222610092163086	1.01822998046875	0.0027260301113128664	-0.0030601201057434083	1.034030029296875	0.04257109832763672	-0.001642549991607666	0.9082670288085938	0.026820600509643553	-0.008121789932250977	0.9217730102539062	0.010847100257873535	-0.013939200401306152	0.9371710205078125	-0.001005740046501159	-0.015629599571228028	0.9757999877929687	0.03523630142211914	0.03178669929504394	0.8965750122070313	0.018930400848388672	0.024172399520874025	0.9126699829101562	-0.001114249944686889	0.015612700462341308	0.9331829833984375	-0.011180800437927246	0.006007120132446289	0.97364501953125	0.02096619987487793	0.05354629898071289	0.9051530151367188	0.0068090500831604	0.04776430130004883	0.923281005859375	-0.009958809852600097	0.03931829833984375	0.9449290161132813	-0.015677300453186035	0.027196300506591796	0.981135009765625	0.01186989974975586	0.08665609741210938	0.95068798828125	0.00045016700029373104	0.07729570007324219	0.9646209716796875	-0.0095908203125	0.06692179870605469	0.9772139892578126	-0.01519629955291748	0.04725070190429687	0.9964530029296875	-0.030923900604248048	0.004749470233917237	1.0569599609375
46	1.5333333333333334	0.0655635986328125	-0.0241968994140625	0.9787369995117188	0.046416900634765626	-0.024951099395751953	0.9982249755859375	0.023721700668334962	-0.022665000915527343	1.018280029296875	0.0030787999629974363	-0.003642529964447021	1.0338699951171875	0.04255419921875	-0.0029033300876617433	0.9080819702148437	0.02681209945678711	-0.009393190383911133	0.9215590209960938	0.010948800086975097	-0.015241700172424317	0.937135986328125	-0.0006635199785232541	-0.0167947998046875	0.9758079833984376	0.03477899932861328	0.03034670066833496	0.8961510009765625	0.01853759956359863	0.022685300827026366	0.9122459716796875	-0.001368839979171753	0.01415839958190918	0.9328519897460937	-0.011151399612426758	0.004766139984130859	0.9736160278320313	0.019834400177001953	0.05168669891357422	0.9043480224609375	0.005788290023803711	0.04596839904785156	0.9226939697265625	-0.01069219970703125	0.03761389923095703	0.9444559936523438	-0.015762900352478026	0.026013099670410156	0.9808770141601563	0.012018899917602539	0.08537100219726562	0.9504719848632812	0.0006489719748497	0.07611910247802735	0.9642760009765625	-0.00943807029724121	0.06580030059814453	0.97677197265625	-0.01509969997406006	0.04621960067749024	0.9960679931640625	-0.030753999710083007	0.003836990118026733	1.0571800537109375
47	1.5666666666666667	0.06548459625244141	-0.02441620063781738	0.9784429931640625	0.04630500030517578	-0.025647300720214844	0.9981740112304688	0.02371660041809082	-0.02342970085144043	1.0183800048828124	0.00303341007232666	-0.004424680233001709	1.0338800048828125	0.04249069976806641	-0.004112269878387451	0.9079569702148438	0.026705400466918945	-0.010669599533081055	0.9215230102539063	0.010939200401306153	-0.016504499435424806	0.9370700073242187	-0.000612836003303527	-0.017852699279785156	0.9757369995117188	0.03432889938354492	0.028822500228881835	0.8957059936523437	0.01818910026550293	0.021196699142456053	0.9118599853515625	-0.001639490008354187	0.012721400260925293	0.9325560302734375	-0.01115149974822998	0.00358400011062622	0.9733289794921876	0.020614500045776366	0.05061289978027344	0.904489990234375	0.006272419929504394	0.044876598358154295	0.922780029296875	-0.010494400024414062	0.036520500183105466	0.9443369750976562	-0.01600580024719238	0.024895700454711914	0.9805670166015625	0.012496800422668456	0.08411219787597657	0.9503699951171874	0.0008501030206680291	0.07490270233154298	0.9640960083007812	-0.009452750205993652	0.06465229797363281	0.9765079956054687	-0.015418000221252441	0.04511669921875	0.9955020141601563	-0.030705099105834962	0.002833450078964233	1.0569300537109374
